<svg width="154" height="24" viewBox="0 0 154 24" fill="none" xmlns="http://www.w3.org/2000/svg">
<path d="M12.6092 0.760535C13.1587 0.270685 13.8692 0 14.6054 0L150 0C152.209 0 154 1.79086 154 4V20C154 22.2091 152.209 24 150 24H14.6054C13.8692 24 13.1587 23.7293 12.6092 23.2395L2.51238 14.2395C1.17397 13.0464 1.17397 10.9536 2.51238 9.76054L12.6092 0.760535Z" fill="#F96D63"/>
<path d="M25.5437 16H24.1491L24.5945 13.4395H22.2155L21.7702 16H20.3757L21.4773 9.66016H22.8718L22.4089 12.3027H24.7937L25.2507 9.66016H26.6452L25.5437 16ZM29.8123 16.1172C29.2616 16.1055 28.783 15.9668 28.3768 15.7012C27.9745 15.4355 27.6756 15.0723 27.4803 14.6113C27.2889 14.1504 27.2166 13.6367 27.2635 13.0703L27.2811 12.8301C27.3514 12.1855 27.5389 11.6074 27.8436 11.0957C28.1522 10.5801 28.535 10.1895 28.992 9.92383C29.4491 9.6582 29.9452 9.53125 30.4803 9.54297C31.2733 9.55859 31.867 9.85352 32.2616 10.4277C32.66 11.002 32.8104 11.75 32.7127 12.6719L32.6307 13.2812H28.6405C28.6053 13.7852 28.7069 14.1914 28.9452 14.5C29.1834 14.8086 29.5116 14.9668 29.9295 14.9746C30.5272 14.9941 31.078 14.7344 31.5819 14.1953L32.285 14.9336C32.0194 15.3125 31.6698 15.6074 31.2362 15.8184C30.8026 16.0254 30.328 16.125 29.8123 16.1172ZM30.4041 10.6797C29.6698 10.6562 29.119 11.1758 28.7518 12.2383L31.3827 12.2441L31.4061 12.1211C31.4334 11.9414 31.4354 11.7656 31.412 11.5938C31.369 11.3164 31.2596 11.0977 31.0838 10.9375C30.908 10.7773 30.6815 10.6914 30.4041 10.6797ZM38.3525 16H36.958L37.8603 10.8086H35.4755L34.5732 16H33.1787L34.2802 9.66016H39.4541L38.3525 16ZM45.6915 12.8535C45.6134 13.4863 45.4434 14.0605 45.1817 14.5762C44.9239 15.0918 44.5938 15.4824 44.1915 15.748C43.793 16.0098 43.3458 16.1348 42.8497 16.123C42.1895 16.1074 41.67 15.873 41.2911 15.4199L40.7227 18.4375H39.3282L40.8516 9.66016L42.1231 9.6543L42.0177 10.3105C42.502 9.7832 43.0782 9.52734 43.7462 9.54297C44.1485 9.54688 44.4981 9.65039 44.795 9.85352C45.0919 10.0527 45.3184 10.3438 45.4747 10.7266C45.6348 11.1094 45.7208 11.5352 45.7325 12.0039C45.7364 12.2422 45.7227 12.5254 45.6915 12.8535ZM44.3204 12.7305L44.3497 12.3027C44.3614 11.7988 44.2774 11.4082 44.0977 11.1309C43.922 10.8535 43.6563 10.7109 43.3009 10.7031C42.7774 10.6875 42.3243 10.9277 41.9415 11.4238L41.4493 14.2539C41.6251 14.7266 41.9825 14.9707 42.5216 14.9863C42.9825 14.998 43.3692 14.8184 43.6817 14.4473C43.9981 14.0762 44.211 13.5039 44.3204 12.7305ZM50.0129 16C49.966 15.8438 49.9465 15.6465 49.9543 15.4082C49.4309 15.8965 48.8664 16.1328 48.2609 16.1172C47.7102 16.1094 47.2531 15.9336 46.8898 15.5898C46.5305 15.2422 46.3625 14.8027 46.3859 14.2715C46.4172 13.6035 46.7062 13.0781 47.2531 12.6953C47.8 12.3125 48.5344 12.1211 49.4562 12.1211L50.3586 12.1328L50.4406 11.6992C50.4641 11.5469 50.4641 11.4043 50.4406 11.2715C50.3625 10.8496 50.0832 10.6328 49.6027 10.6211C49.3059 10.6133 49.0441 10.6895 48.8176 10.8496C48.5949 11.0059 48.4582 11.2168 48.4074 11.4824L47.0187 11.4941C47.0461 11.1035 47.1848 10.7617 47.4348 10.4688C47.6848 10.1719 48.0168 9.94141 48.4309 9.77734C48.8449 9.61328 49.2824 9.53516 49.7434 9.54297C50.4348 9.55859 50.9738 9.76758 51.3605 10.1699C51.7473 10.5684 51.9074 11.0859 51.841 11.7227L51.3547 14.6934L51.3078 15.2207C51.2961 15.4512 51.3254 15.6758 51.3957 15.8945L51.3898 16H50.0129ZM48.5832 14.9805C48.8762 14.9883 49.1477 14.9219 49.3977 14.7812C49.6477 14.6367 49.8605 14.4512 50.0363 14.2246L50.2531 13.0234L49.591 13.0176C49.0676 13.0176 48.6496 13.1172 48.3371 13.3164C48.0246 13.5117 47.8469 13.7812 47.8039 14.125C47.7727 14.3867 47.8293 14.5938 47.9738 14.7461C48.1223 14.8945 48.3254 14.9727 48.5832 14.9805ZM52.5941 16L53.6956 9.66016L56.1214 9.66602C56.6995 9.68164 57.18 9.77344 57.5628 9.94141C58.2034 10.2266 58.5062 10.7012 58.471 11.3652C58.432 11.9902 58.0062 12.4609 57.1937 12.7773C57.5218 12.875 57.7796 13.043 57.9671 13.2812C58.1585 13.5195 58.2503 13.8066 58.2425 14.1426C58.223 14.7207 57.9847 15.1719 57.5277 15.4961C57.0745 15.8203 56.4495 15.9883 55.6527 16H52.5941ZM54.4573 13.2988L54.182 14.875L55.6116 14.8809C55.9905 14.8691 56.2874 14.791 56.5023 14.6465C56.721 14.502 56.848 14.3027 56.8831 14.0488C56.9222 13.8262 56.8714 13.6504 56.7308 13.5215C56.5941 13.3887 56.3655 13.3164 56.0452 13.3047L54.4573 13.2988ZM54.6273 12.2793L55.6937 12.2852C56.5218 12.2852 56.9788 12.0312 57.0648 11.5234C57.0999 11.2969 57.0413 11.123 56.889 11.002C56.7405 10.877 56.471 10.8086 56.0804 10.7969L54.8909 10.791L54.6273 12.2793ZM63.9584 9.66016H65.3881L64.2866 16H62.8979L63.6245 11.8633L60.5424 16H59.1127L60.2143 9.66016H61.603L60.8764 13.7969L63.9584 9.66016ZM72.024 9.66016L70.9283 16H69.5337L70.4361 10.8086H68.7134L68.1334 13.457C67.9263 14.3555 67.6236 15.0059 67.2252 15.4082C66.8267 15.8066 66.317 16.0039 65.6959 16H65.2154L65.3443 14.8223L65.5552 14.8047C65.9107 14.7734 66.1998 14.6113 66.4224 14.3184C66.649 14.0215 66.8228 13.5312 66.9439 12.8477L67.0318 12.3672L67.5943 9.66016H72.024ZM74.5759 11.6758L75.8298 11.6816C76.5173 11.6973 77.0622 11.8945 77.4645 12.2734C77.8708 12.6523 78.0563 13.1562 78.0212 13.7852C77.9782 14.4453 77.7028 14.9805 77.195 15.3906C76.6872 15.7969 76.0368 16 75.2438 16H72.4372L73.5387 9.66016H74.9274L74.5759 11.6758ZM74.3825 12.8184L74.0251 14.8633L75.2907 14.8691C75.6501 14.8613 75.9509 14.7656 76.193 14.582C76.4352 14.3984 76.5817 14.1445 76.6325 13.8203C76.6755 13.5195 76.6208 13.2832 76.4684 13.1113C76.32 12.9355 76.0993 12.8398 75.8063 12.8242L74.3825 12.8184ZM83.9012 16H82.5066L82.952 13.4395H80.573L80.1277 16H78.7332L79.8348 9.66016H81.2293L80.7664 12.3027H83.1512L83.6082 9.66016H85.0027L83.9012 16ZM87.5429 11.6758L88.7968 11.6816C89.4843 11.6973 90.0292 11.8945 90.4316 12.2734C90.8378 12.6523 91.0234 13.1562 90.9882 13.7852C90.9452 14.4453 90.6698 14.9805 90.162 15.3906C89.6542 15.7969 89.0038 16 88.2109 16H85.4042L86.5058 9.66016H87.8945L87.5429 11.6758ZM87.3495 12.8184L86.9921 14.8633L88.2577 14.8691C88.6171 14.8613 88.9179 14.7656 89.1601 14.582C89.4023 14.3984 89.5488 14.1445 89.5995 13.8203C89.6425 13.5195 89.5878 13.2832 89.4355 13.1113C89.287 12.9355 89.0663 12.8398 88.7734 12.8242L87.3495 12.8184ZM93.0155 16H91.6269L92.7284 9.66016H94.1171L93.0155 16ZM99.4991 9.66016H100.929L99.8272 16H98.4385L99.1651 11.8633L96.083 16H94.6534L95.7549 9.66016H97.1436L96.417 13.7969L99.4991 9.66016ZM100.554 7.22266C100.515 7.74219 100.314 8.15234 99.9502 8.45312C99.587 8.75391 99.1416 8.89648 98.6143 8.88086C98.0987 8.87305 97.6846 8.7207 97.3721 8.42383C97.0635 8.12305 96.9092 7.72266 96.9092 7.22266L97.9405 7.22852C97.9209 7.77539 98.1455 8.04883 98.6143 8.04883C98.876 8.04883 99.0811 7.97266 99.2295 7.82031C99.378 7.66797 99.4756 7.47266 99.5225 7.23438L100.554 7.22266ZM107.122 9.53125C107.388 9.53906 107.656 9.59961 107.925 9.71289L108.441 7H109.829L109.302 9.73633C109.575 9.60742 109.853 9.54688 110.134 9.55469C110.728 9.5625 111.179 9.80273 111.488 10.2754C111.8 10.7441 111.954 11.3867 111.95 12.2031C111.947 12.4531 111.933 12.6875 111.909 12.9062L111.88 13.1172C111.79 13.7539 111.616 14.3066 111.359 14.7754C111.101 15.2441 110.788 15.5898 110.421 15.8125C110.054 16.0352 109.65 16.1406 109.208 16.1289C108.9 16.125 108.605 16.0605 108.324 15.9355L107.843 18.4375H106.454L106.935 15.959C106.693 16.0566 106.435 16.1055 106.161 16.1055C105.591 16.1055 105.148 15.8945 104.831 15.4727C104.519 15.0469 104.357 14.4746 104.345 13.7559C104.341 13.5215 104.351 13.2969 104.374 13.082L104.409 12.8301C104.511 12.127 104.687 11.5215 104.937 11.0137C105.191 10.5059 105.503 10.1289 105.874 9.88281C106.249 9.63672 106.665 9.51953 107.122 9.53125ZM110.521 12.877C110.556 12.5215 110.572 12.2324 110.568 12.0098C110.548 11.1621 110.257 10.7246 109.695 10.6973C109.558 10.6895 109.394 10.709 109.202 10.7559L108.435 14.9336C108.587 14.9766 108.738 14.998 108.886 14.998C109.784 14.998 110.329 14.291 110.521 12.877ZM105.757 13.082C105.722 13.4219 105.71 13.6855 105.722 13.873C105.761 14.5762 106.046 14.9414 106.577 14.9688C106.671 14.9727 106.825 14.959 107.04 14.9277L107.814 10.7324C107.673 10.6895 107.538 10.668 107.409 10.668C106.57 10.6523 106.034 11.3457 105.804 12.748L105.757 13.082ZM112.821 12.8066C112.887 12.1855 113.069 11.6211 113.366 11.1133C113.666 10.6055 114.051 10.2129 114.52 9.93555C114.989 9.6582 115.508 9.52734 116.079 9.54297C116.621 9.55078 117.09 9.69531 117.485 9.97656C117.879 10.2578 118.166 10.6426 118.346 11.1309C118.53 11.6191 118.594 12.1621 118.539 12.7598C118.477 13.4316 118.293 14.0254 117.989 14.541C117.688 15.0566 117.301 15.4531 116.829 15.7305C116.36 16.0039 115.838 16.1328 115.264 16.1172C114.725 16.1094 114.258 15.9668 113.864 15.6895C113.473 15.4082 113.186 15.0254 113.002 14.541C112.819 14.0527 112.752 13.5156 112.803 12.9297L112.821 12.8066ZM114.186 13.6094C114.205 14.0195 114.313 14.3496 114.508 14.5996C114.707 14.8457 114.983 14.9746 115.334 14.9863C115.811 14.998 116.209 14.8145 116.53 14.4355C116.854 14.0566 117.057 13.5391 117.139 12.8828L117.174 12.3086C117.174 11.8086 117.075 11.416 116.875 11.1309C116.676 10.8457 116.387 10.6953 116.008 10.6797C115.414 10.6641 114.946 10.9551 114.602 11.5527C114.395 11.916 114.264 12.334 114.209 12.8066C114.178 13.1348 114.17 13.4023 114.186 13.6094ZM124.994 12.8535C124.916 13.4863 124.746 14.0605 124.484 14.5762C124.226 15.0918 123.896 15.4824 123.494 15.748C123.095 16.0098 122.648 16.1348 122.152 16.123C121.492 16.1074 120.972 15.873 120.593 15.4199L120.025 18.4375H118.63L120.154 9.66016L121.425 9.6543L121.32 10.3105C121.804 9.7832 122.38 9.52734 123.048 9.54297C123.451 9.54688 123.8 9.65039 124.097 9.85352C124.394 10.0527 124.621 10.3438 124.777 10.7266C124.937 11.1094 125.023 11.5352 125.035 12.0039C125.039 12.2422 125.025 12.5254 124.994 12.8535ZM123.623 12.7305L123.652 12.3027C123.664 11.7988 123.58 11.4082 123.4 11.1309C123.224 10.8535 122.959 10.7109 122.603 10.7031C122.08 10.6875 121.626 10.9277 121.244 11.4238L120.751 14.2539C120.927 14.7266 121.285 14.9707 121.824 14.9863C122.285 14.998 122.671 14.8184 122.984 14.4473C123.3 14.0762 123.513 13.5039 123.623 12.7305ZM129.479 14.2363L132.087 9.66016H133.856L132.755 16H131.366L132.081 11.9102L129.714 16H128.764L127.792 11.7227L127.042 16H125.653L126.755 9.66016H128.471L129.479 14.2363ZM138.008 16C137.961 15.8438 137.941 15.6465 137.949 15.4082C137.426 15.8965 136.861 16.1328 136.256 16.1172C135.705 16.1094 135.248 15.9336 134.885 15.5898C134.525 15.2422 134.357 14.8027 134.381 14.2715C134.412 13.6035 134.701 13.0781 135.248 12.6953C135.795 12.3125 136.529 12.1211 137.451 12.1211L138.353 12.1328L138.435 11.6992C138.459 11.5469 138.459 11.4043 138.435 11.2715C138.357 10.8496 138.078 10.6328 137.597 10.6211C137.301 10.6133 137.039 10.6895 136.812 10.8496C136.59 11.0059 136.453 11.2168 136.402 11.4824L135.013 11.4941C135.041 11.1035 135.179 10.7617 135.429 10.4688C135.679 10.1719 136.011 9.94141 136.426 9.77734C136.84 9.61328 137.277 9.53516 137.738 9.54297C138.429 9.55859 138.969 9.76758 139.355 10.1699C139.742 10.5684 139.902 11.0859 139.836 11.7227L139.349 14.6934L139.302 15.2207C139.291 15.4512 139.32 15.6758 139.39 15.8945L139.385 16H138.008ZM136.578 14.9805C136.871 14.9883 137.142 14.9219 137.392 14.7812C137.642 14.6367 137.855 14.4512 138.031 14.2246L138.248 13.0234L137.586 13.0176C137.062 13.0176 136.644 13.1172 136.332 13.3164C136.019 13.5117 135.842 13.7812 135.799 14.125C135.767 14.3867 135.824 14.5938 135.969 14.7461C136.117 14.8945 136.32 14.9727 136.578 14.9805ZM146.143 10.791H144.151L143.243 16H141.854L142.757 10.791H140.782L140.981 9.66016H146.343L146.143 10.791Z" fill="white"/>
</svg>
